Coordinates
version=1
nRows=11
nColumns=40
inDegrees=yes

Units are S.I. units (second, meters, Newtons, ...)
Angles are in degrees.

endheader
time	pelvis_tilt	pelvis_list	pelvis_rotation	pelvis_tx	pelvis_ty	pelvis_tz	hip_flexion_r	hip_adduction_r	hip_rotation_r	knee_angle_r	knee_angle_r_beta	ankle_angle_r	subtalar_angle_r	mtp_angle_r	hip_flexion_l	hip_adduction_l	hip_rotation_l	knee_angle_l	knee_angle_l_beta	ankle_angle_l	subtalar_angle_l	mtp_angle_l	lumbar_extension	lumbar_bending	lumbar_rotation	arm_flex_r	arm_add_r	arm_rot_r	elbow_flex_r	pro_sup_r	wrist_flex_r	wrist_dev_r	arm_flex_l	arm_add_l	arm_rot_l	elbow_flex_l	pro_sup_l	wrist_flex_l	wrist_dev_l
     22.07000000	     -5.07256126	     -3.57995643	      3.25154163	      0.83345226	      0.92710404	      0.42665098	     24.39417015	     -6.12076799	     -4.97761961	     67.61105883	     67.61105883	     -0.71602656	    -11.64861785	     -2.31112546	     17.49079035	     -2.36377042	     -2.98321764	     24.64815455	     24.64815455	     14.96142788	     -9.68438059	      3.08020897	     -9.43606093	      6.49386047	      2.50288824	     12.78171851	    -13.76067493	    -14.82885588	     29.42756487	     46.58395988	      0.00000000	      0.00000000	      3.16689722	    -15.91263032	     -9.50384348	     67.90794840	     47.47234491	      0.00000000	      0.00000000
     22.08321429	     -5.14819722	     -3.67125307	      2.98901234	      0.83274929	      0.92791187	      0.42669533	     26.09336779	     -5.99415269	     -4.95866731	     67.57510195	     67.57510195	     -0.56917867	    -12.10461191	     -2.34240614	     16.76819767	     -2.48021966	     -3.08516874	     24.02851931	     24.02851931	     15.12404535	     -9.69206290	      3.20495827	     -9.48748116	      6.56021908	      2.55881956	     10.95301842	    -13.54199794	    -14.65111623	     28.54302710	     46.59035059	      0.00000000	      0.00000000	      4.33501896	    -16.23979166	     -9.97347046	     69.16329005	     47.53422266	      0.00000000	      0.00000000
     22.09642857	     -5.17872139	     -3.75232129	      2.73852309	      0.83211946	      0.92868922	      0.42675490	     27.63557267	     -5.88463890	     -5.01402887	     67.33192819	     67.33192819	     -0.41199368	    -12.49412028	     -2.27932930	     16.00051476	     -2.59598663	     -3.24879839	     23.42729819	     23.42729819	     15.34316906	     -9.63160024	      3.26024121	     -9.56354336	      6.62582230	      2.55759716	      9.15713332	    -13.32210388	    -14.42460420	     27.72014374	     46.59105377	      0.00000000	      0.00000000	      5.45087655	    -16.57546303	    -10.45843346	     70.45634434	     47.59728387	      0.00000000	      0.00000000
     22.10964286	     -5.17161615	     -3.85236492	      2.49132588	      0.83147776	      0.92947929	      0.42689567	     29.03512142	     -5.71056762	     -5.05230935	     66.81897713	     66.81897713	     -0.29033769	    -12.79344173	     -2.06899672	     15.21207105	     -2.73771806	     -3.38813623	     22.84165739	     22.84165739	     15.48658430	     -9.54379933	      3.30907618	     -9.74638099	      6.70953528	      2.67624380	      7.30290717	    -13.13300022	    -14.07734235	     26.88867210	     46.58222273	      0.00000000	      0.00000000	      6.58350501	    -16.84454287	    -11.02515976	     72.00221615	     47.67072854	      0.00000000	      0.00000000
     22.12285714	     -5.18770300	     -3.97751249	      2.24967916	      0.83091539	      0.93011174	      0.42718906	     30.30518847	     -5.50308867	     -5.17733575	     65.97049919	     65.97049919	     -0.05398929	    -13.04704156	     -1.78034267	     14.44349114	     -2.91127025	     -3.54193302	     22.24329933	     22.24329933	     15.66051178	     -9.45325446	      3.31276163	     -9.86193576	      6.76960222	      2.67471038	      5.52991177	    -12.91015615	    -13.68209718	     26.18261741	     46.56462488	      0.00000000	      0.00000000	      7.64414735	    -17.14615340	    -11.61668090	     73.47348277	     47.74384522	      0.00000000	      0.00000000
     22.13607143	     -5.19802273	     -4.09994067	      2.01890026	      0.83033837	      0.93061546	      0.42756596	     31.43372281	     -5.30287184	     -5.35347632	     64.75946363	     64.75946363	      0.23057410	    -13.15817151	     -1.36924246	     13.70809010	     -3.08093139	     -3.68396199	     21.70337524	     21.70337524	     15.82072669	     -9.38503179	      3.21006982	    -10.00380471	      6.84664357	      2.63272867	      3.81027482	    -12.70125266	    -13.06854715	     25.68535098	     46.52101305	      0.00000000	      0.00000000	      8.58949202	    -17.40239390	    -12.33554387	     75.10995839	     47.82843675	      0.00000000	      0.00000000
     22.14928571	     -5.24439593	     -4.23316395	      1.77772674	      0.82977943	      0.93097020	      0.42809364	     32.43373859	     -5.07077075	     -5.57151345	     63.11557154	     63.11557154	      0.49509153	    -13.24338038	     -1.04168859	     12.98489183	     -3.26536542	     -3.84813371	     21.10725767	     21.10725767	     15.97973585	     -9.29438392	      3.10102290	    -10.07590217	      6.93483127	      2.54078866	      2.18417220	    -12.46573435	    -12.57595866	     25.30477786	     46.48323938	      0.00000000	      0.00000000	      9.50271140	    -17.66250570	    -12.98451835	     76.47331719	     47.90218635	      0.00000000	      0.00000000
     22.16250000	     -5.30774331	     -4.34812572	      1.53652983	      0.82919997	      0.93116176	      0.42873098	     33.28144094	     -4.84663338	     -5.82223022	     61.03742753	     61.03742753	      0.78213076	    -13.22272185	     -0.83586562	     12.29650867	     -3.43635950	     -4.02298714	     20.53659454	     20.53659454	     16.10354209	     -9.19826583	      2.85607886	    -10.15425091	      6.99667205	      2.48140776	      0.53030175	    -12.24794027	    -12.01330613	     25.17479097	     46.42968519	      0.00000000	      0.00000000	     10.37079297	    -17.84213410	    -13.72176712	     78.01695446	     47.98447654	      0.00000000	      0.00000000
     22.17571429	     -5.37826133	     -4.47552071	      1.29980726	      0.82865228	      0.93125368	      0.42947353	     33.92456008	     -4.59967965	     -6.14753176	     58.47489135	     58.47489135	      1.07491981	    -13.12813647	     -0.77175242	     11.59917950	     -3.62365098	     -4.21025264	     19.93720797	     19.93720797	     16.23170007	     -9.08744594	      2.62060767	    -10.20800866	      7.08978684	      2.39730204	     -1.02581486	    -12.02009999	    -11.65041327	     25.06483244	     46.39273637	      0.00000000	      0.00000000	     11.23826803	    -18.02926017	    -14.33570792	     79.35932404	     48.05386457	      0.00000000	      0.00000000
     22.18892857	     -5.62133001	     -4.56696161	      1.08177653	      0.82802685	      0.93085745	      0.43035427	     34.59210495	     -4.42058284	     -6.58344612	     55.54792364	     55.54792364	      1.44903203	    -12.81234066	     -0.59321391	     11.19110118	     -3.77015758	     -4.33980888	     19.52001199	     19.52001199	     16.46303209	     -9.02683287	      2.50046176	    -10.01736068	      7.13120618	      2.06741595	     -2.28130124	    -11.69073837	    -11.57962991	     24.77382508	     46.38777814	      0.00000000	      0.00000000	     12.04314692	    -18.54821860	    -14.71372178	     80.05202093	     48.09442971	      0.00000000	      0.00000000
     22.20214286	     -5.63272389	     -4.62483297	      0.82317266	      0.82764966	      0.93082240	      0.43125567	     34.73392094	     -4.21477367	     -7.02421071	     52.06646466	     52.06646466	      1.53532849	    -12.46249787	     -1.04490365	     10.32894844	     -3.90151869	     -4.69011115	     18.77243306	     18.77243306	     16.48052711	     -8.74918708	      1.90026913	    -10.19118697	      7.13790926	      2.27080728	     -3.95556735	    -11.52168089	    -11.40096052	     25.14885793	     46.34499455	      0.00000000	      0.00000000	     12.83374183	    -18.29058119	    -15.49542494	     82.10769447	     48.18668887	      0.00000000	      0.00000000
